HIERARCHY
ROOT Hips
{
  OFFSET -374.423 94.5116 -330.329
  CHANNELS 6 Xposition Yposition Zposition Zrotation Xrotation Yrotation
  JOINT Spine
  {
    OFFSET 1.81723e-005 10 0
    CHANNELS 3 Zrotation Xrotation Yrotation
    JOINT Neck
    {
      OFFSET 9.46149e-005 30.0003 0
      CHANNELS 3 Zrotation Xrotation Yrotation
      JOINT Head
      {
        OFFSET -2.34365e-005 10 1.0083e-005
        CHANNELS 3 Zrotation Xrotation Yrotation
        End Site
        {
          OFFSET 0 15 0
        }
      }
      JOINT LeftArm
      {
        OFFSET 14.8446 -2.07136 -0.590425
        CHANNELS 3 Zrotation Xrotation Yrotation
        JOINT LeftForeArm
        {
          OFFSET 25 1.85044e-005 -1.81144e-005
          CHANNELS 3 Zrotation Xrotation Yrotation
          JOINT LeftHand
          {
            OFFSET 25 2.52872e-005 -1.27824e-005
            CHANNELS 3 Zrotation Xrotation Yrotation
            End Site
            {
              OFFSET 10 0 0
            }
          }
        }
      }
      JOINT RightArm
      {
        OFFSET -14.8446 2.07073 0.590557
        CHANNELS 3 Zrotation Xrotation Yrotation
        JOINT RightForeArm
        {
          OFFSET -25 -8.25455e-005 -1.42416e-005
          CHANNELS 3 Zrotation Xrotation Yrotation
          JOINT RightHand
          {
            OFFSET -25 0 0
            CHANNELS 3 Zrotation Xrotation Yrotation
            End Site
            {
              OFFSET -15 0 0
            }
          }
        }
      }
    }
  }
  JOINT LeftUpLeg
  {
    OFFSET 10 -10 2.12341e-005
    CHANNELS 3 Zrotation Xrotation Yrotation
    JOINT LeftLeg
    {
      OFFSET -0.000124842 -35 0.000334224
      CHANNELS 3 Zrotation Xrotation Yrotation
      JOINT LeftFoot
      {
        OFFSET 3.10853e-005 -40.0001 -2.05275e-005
        CHANNELS 3 Zrotation Xrotation Yrotation
        End Site
        {
          OFFSET 0 0 15
        }
      }
    }
  }
  JOINT RightUpLeg
  {
    OFFSET -9.99999 -10 0
    CHANNELS 3 Zrotation Xrotation Yrotation
    JOINT RightLeg
    {
      OFFSET 5.37648e-005 -35 -0.000361204
      CHANNELS 3 Zrotation Xrotation Yrotation
      JOINT RightFoot
      {
        OFFSET 1.46514e-005 -40 -2.99228e-005
        CHANNELS 3 Zrotation Xrotation Yrotation
        End Site
        {
          OFFSET 0 0 15
        }
      }
    }
  }
}
MOTION
Frames:	11
Frame Time:	0.0333333
-374.423 94.5116 -330.329 -8.51281 2.85293 40.6467 2.14219 2.52566 -2.10394 7.96057 -4.47098 -1.65333 2.53398 -8.08709 10.9785 -73.0976 36.4784 11.5254 -0.00168413 -0.00205752 -106.35 3.89419 -3.47519 -6.31274 66.5553 17.4605 -29.2607 0.00260473 0.00246653 97.2894 -4.52473 4.45279 4.29711 5.39963 -8.72763 10.8502 -0.0168765 73.3608 -0.0309279 -8.1492 16.6696 8.16142 7.74405 -28.6358 -7.64058 -0.00371494 14.2531 0.0523432 13.4271 -0.56738 0.65992 
-367.751 92.0748 -323.652 -12.7191 -1.38355 38.0623 6.98525 4.94273 0.89077 9.84499 -6.81513 0.894865 1.88589 -7.42691 8.59848 -77.735 33.123 18.862 -0.00141172 -0.00112558 -95.4618 5.60175 -2.12785 -6.01118 62.5921 18.4378 -23.5216 0.0026303 0.00225764 96.6691 -6.16001 1.14388 4.85631 16.8231 -19.5403 14.969 -179.997 88.4416 179.905 -6.18202 13.88 8.43584 16.2942 -28.0717 -3.33512 -0.000491663 25.6095 0.0223581 2.33176 -5.27189 -0.346383 
-360.953 91.2673 -316.9 -14.6518 -3.8244 35.2234 9.43575 5.91833 3.23626 10.5939 -7.5567 3.52811 0.848355 -6.40807 6.484 -81.4207 27.7597 26.5696 -0.00119113 -0.00133468 -85.8614 7.13729 -2.27707 -5.38506 59.3428 20.071 -16.3716 0.00263926 0.00217962 96.4377 -8.41464 1.1837 5.59364 23.8662 -30.0236 17.6811 179.985 77.7112 179.902 -4.07321 10.6834 9.20604 20.0448 -23.8231 -0.524205 0.000252699 33.101 0.0104139 -1.28119 -12.6419 -0.720849 
-354.121 91.576 -309.719 -14.4906 -4.05623 33.5708 9.71052 6.21394 4.32609 10.0498 -7.01141 6.14751 -0.083069 -6.82952 4.7985 -82.4947 23.3405 33.1352 -0.00118481 -0.00136205 -84.0787 7.09909 -5.40478 -5.09256 57.792 21.1416 -8.7037 0.00251441 0.00300944 99.1503 -9.49542 2.54038 5.93538 26.3531 -39.7284 19.0997 179.973 75.5306 179.91 -3.30664 6.74713 9.9673 18.6828 -15.8294 -0.649886 -0.000666405 32.9892 0.0112602 0.201872 -16.9675 1.18023 
-347.274 92.6201 -302.113 -13.3708 -1.75664 32.5335 8.13427 6.44542 6.06782 8.58612 -7.6051 8.85415 -0.592088 -7.30588 2.15504 -82.332 22.42 38.4827 -0.00131099 -0.00123371 -89.9103 4.35384 -8.07422 -5.75449 58.007 21.954 -3.78199 0.0021029 0.00454875 105.664 -8.72363 1.37208 6.18978 25.9083 -47.3661 20.7128 179.994 81.5627 179.892 -4.26412 1.5166 10.8095 14.9023 -7.88425 0.0506521 -0.00151146 28.2753 0.0140784 2.09055 -14.2657 2.57972 
-340.248 94.4784 -294.22 -11.7392 2.22041 32.1313 5.93118 6.43915 8.12675 5.35909 -9.30704 10.8304 -0.443695 -8.01233 -0.951377 -81.292 22.8709 42.0294 -0.00145497 -0.00104991 -97.2397 1.58936 -6.89135 -6.43969 59.3741 24.3807 -1.42695 0.00159516 0.00542231 112.862 -8.59817 -0.910865 6.08215 22.0048 -51.7405 21.1368 -0.010362 84.8535 -0.100608 -5.30071 -4.19979 11.6672 9.54312 -1.6092 0.601721 -0.00105987 21.4905 0.0104882 3.93435 -2.62044 3.1978 
-333.02 96.1303 -286.092 -10.1879 5.74627 33.4 4.3645 5.14006 8.96756 0.990396 -9.1597 10.7601 0.174191 -10.0809 -3.24939 -79.6183 22.1879 42.8421 -0.00145109 -0.000333975 -102.379 0.51619 -3.96299 -6.15933 60.6248 28.5382 0.338367 0.00138258 0.00511932 117.874 -8.4109 -0.208604 5.92597 14.9398 -51.8508 18.2653 -0.000232078 65.0399 -0.122518 -6.99961 -8.85622 10.1833 4.48841 4.1238 -0.141886 9.5284e-005 14.2009 -0.0216318 6.33617 14.4152 2.31009 
-325.714 97.0209 -277.948 -9.84606 6.54411 34.9944 4.44984 2.76556 9.23079 -2.48066 -6.27852 9.56031 1.10628 -12.1741 -4.57597 -78.1701 20.6942 41.2285 -0.00128072 0.00117356 -104.905 1.60454 -2.71116 -5.2081 61.4336 32.9346 1.33716 0.00148513 0.00425293 119.929 -6.64735 2.07849 5.70148 10.5338 -47.1449 16.4198 -0.00433554 42.604 -0.204765 -12.728 -11.2153 3.51417 3.08061 7.39728 1.37212 -0.000292298 15.1184 -0.0623147 9.25189 24.7982 -2.66161 
-318.341 97.0126 -270.005 -10.7552 4.85207 35.4979 5.77879 0.820675 8.99051 -4.15219 -3.54538 9.10402 1.92597 -11.9044 -5.1029 -77.2743 19.7857 38.4554 -0.00108138 0.00267787 -105.563 3.55564 -2.12345 -4.76161 63.0527 36.4438 -0.0515641 0.00169921 0.00354565 118.728 -4.43438 2.29223 5.33197 10.3224 -39.3884 17.0525 -9.65768e-005 22.0762 -0.226028 -22.1235 -9.77602 -5.22104 5.43027 5.50416 4.84266 0.00105499 28.6367 -0.052105 10.957 25.0149 -9.08578 
-311.078 95.9991 -262.366 -11.2072 3.55802 35.6559 5.8568 0.0209076 7.65697 -4.71688 -2.21319 8.85612 2.47205 -10.692 -4.36866 -76.3748 19.7073 34.174 -0.000937808 0.0038575 -105.269 5.15984 -1.78973 -5.21162 65.6847 37.9433 -2.96456 0.00191192 0.0033296 113.94 -3.83564 0.74948 4.90494 9.96652 -33.744 17.0999 -9.27268e-005 12.0844 -0.135421 -26.868 -8.15229 -8.34764 7.30343 -1.44993 5.48962 -0.000709053 49.0916 -0.0102158 10.0079 23.6292 -11.4696 
-304.207 94.5451 -255.085 -9.00488 4.51634 36.4046 2.60995 1.1674 5.22866 -4.98268 -2.52123 7.71796 2.78559 -9.82572 -2.2725 -74.8717 20.3435 28.1967 -0.000865491 0.00464471 -104.53 5.97107 -2.83348 -6.12607 68.4732 37.0218 -5.69793 0.00221252 0.00321539 105.941 -5.52368 0.671616 4.71012 6.16534 -32.6617 17.4922 0.00108115 16.7604 -0.165145 -20.2545 -8.83672 -5.99106 3.88905 -11.3715 2.82264 0.00365623 69.5523 -0.00316586 8.75475 22.7486 -11.5318 
